<svg width="18" height="15" viewBox="0 0 18 15" fill="none" xmlns="http://www.w3.org/2000/svg">
<path d="M16.1201 9.26718C15.1312 9.40124 14.1393 9.3769 13.1782 9.19499C12.7067 9.10104 12.1713 9.31844 11.9341 9.64075L10.3021 11.2695C8.0446 10.4212 6.57274 9.28922 5.18268 7.33152L6.27564 5.36739C6.57497 4.97237 6.63118 4.44697 6.41898 3.98991C5.98923 3.09855 5.70362 2.14088 5.57061 1.14322C5.47457 0.422495 4.81492 -0.0850223 4.10022 0.0118561L1.1337 0.413967C0.418996 0.510845 -0.0843186 1.176 0.0117581 1.89668C1.11305 10.1575 8.67389 15.9746 16.8663 14.8641C17.581 14.7672 18.0843 14.1021 17.9882 13.3814L17.5906 10.3985C17.4945 9.67783 16.8348 9.17031 16.1201 9.26718Z" fill="currentColor"/>
</svg>
