<svg viewBox="0 0 20 19" fill="none" xmlns="http://www.w3.org/2000/svg">
  <path d="M17.612 2.50292C17.1722 2.02645 16.65 1.64848 16.0752 1.39061C15.5005 1.13273 14.8844 1 14.2623 1C13.6401 1 13.0241 1.13273 12.4493 1.39061C11.8746 1.64848 11.3524 2.02645 10.9126 2.50292L9.99977 3.4913L9.08699 2.50292C8.19858 1.54094 6.99364 1.0005 5.73725 1.0005C4.48085 1.0005 3.27591 1.54094 2.38751 2.50292C1.4991 3.46491 1 4.76964 1 6.1301C1 7.49055 1.4991 8.79528 2.38751 9.75727L3.30029 10.7457L9.99977 18L16.6992 10.7457L17.612 9.75727C18.0521 9.28102 18.4011 8.71557 18.6393 8.0932C18.8774 7.47084 19 6.80377 19 6.1301C19 5.45642 18.8774 4.78935 18.6393 4.16699C18.4011 3.54463 18.0521 2.97917 17.612 2.50292Z" stroke="currentColor" stroke-linecap="round" stroke-linejoin="round"/>
</svg>
