<svg width="44" height="14" viewBox="0 0 44 14" fill="none" xmlns="http://www.w3.org/2000/svg">
<g clip-path="url(#clip0)">
<path d="M28.7262 0.222839C25.2371 0.222839 22.7862 2.07566 22.7645 4.72498C22.7424 6.68765 24.5173 7.78203 25.8522 8.43434C27.2294 9.10119 27.6894 9.52973 27.6849 10.1263C27.6712 11.0408 26.5829 11.4574 25.5715 11.4574C24.1616 11.4574 23.41 11.2517 22.2546 10.7442L21.7965 10.5267L21.303 13.5802C22.1279 13.9602 23.6513 14.2894 25.2349 14.3066C28.9375 14.3066 31.3466 12.4751 31.3752 9.64708C31.3898 8.09043 30.4477 6.91229 28.4108 5.93958C27.1811 5.30715 26.4208 4.88779 26.4322 4.24697C26.4331 3.68074 27.0702 3.0739 28.4531 3.0739C29.6081 3.05448 30.4387 3.31928 31.0927 3.5982L31.4073 3.75497L31.8871 0.797051C31.1902 0.522065 30.0904 0.222917 28.7261 0.222917L28.7262 0.222839ZM17.7729 0.460812L15.5661 14.1049H19.092L21.3 0.460657H17.7734L17.7729 0.460812ZM12.6074 0.474051L9.15479 9.77294L8.78673 7.88345C7.92692 5.5665 6.06559 3.13612 3.89795 2.15113L7.05622 14.0919L10.7898 14.0901L16.3419 0.474154H12.6074V0.474051ZM38.2087 0.474934C37.3639 0.474934 36.7308 0.715455 36.3579 1.6074L31.1221 14.1094H34.8266C34.8266 14.1094 35.4322 12.4266 35.5692 12.0582C35.9735 12.0582 39.5714 12.0659 40.0848 12.0659C40.1939 12.5417 40.5143 14.1092 40.5143 14.1092H43.7897L40.9337 0.474941H38.2088L38.2087 0.474934ZM38.4579 4.15337L38.6929 5.32961C38.6929 5.32961 39.3707 8.58509 39.5121 9.26692H36.5841C36.877 8.484 37.9891 5.45314 37.9891 5.45314C37.9675 5.49021 38.2785 4.66396 38.4578 4.15333L38.4579 4.15337Z" fill="#0023A0"/>
<path d="M5.95254 0.466889H0.263851L0.230713 0.701676C4.65357 1.83152 7.5715 4.60605 8.78646 7.88701L7.55019 1.61612C7.33769 0.753715 6.7187 0.497313 5.95254 0.466858" fill="#FFAB00"/>
</g>
<defs>
<clipPath id="clip0">
<rect width="43.8667" height="14" fill="white"/>
</clipPath>
</defs>
</svg>
