<svg width="31" height="24" viewBox="0 0 31 24" fill="none" xmlns="http://www.w3.org/2000/svg">
<g clip-path="url(#clip0)">
<path d="M5.58949 24.1294V22.5243C5.58949 21.9091 5.22038 21.5078 4.58762 21.5078C4.27125 21.5078 3.9285 21.6148 3.69122 21.9626C3.50666 21.6683 3.24302 21.5078 2.84754 21.5078C2.58389 21.5078 2.32025 21.5881 2.10933 21.8823V21.5613H1.55566V24.1294H2.10933V22.7116C2.10933 22.2568 2.34661 22.0428 2.71572 22.0428C3.08483 22.0428 3.26938 22.2836 3.26938 22.7116V24.1294H3.82304V22.7116C3.82304 22.2568 4.08669 22.0428 4.42944 22.0428C4.79854 22.0428 4.9831 22.2836 4.9831 22.7116V24.1294H5.58949ZM13.789 21.5613H12.8926V20.7855H12.3389V21.5613H11.838V22.0696H12.3389V23.2466C12.3389 23.8351 12.5762 24.1829 13.2089 24.1829C13.4462 24.1829 13.7099 24.1027 13.8944 23.9957L13.7362 23.5141C13.578 23.6211 13.3935 23.6479 13.2617 23.6479C12.998 23.6479 12.8926 23.4874 12.8926 23.2199V22.0696H13.789V21.5613ZM18.4819 21.5078C18.1655 21.5078 17.9546 21.6683 17.8228 21.8823V21.5613H17.2691V24.1294H17.8228V22.6849C17.8228 22.2568 18.0073 22.0161 18.3501 22.0161C18.4555 22.0161 18.5874 22.0428 18.6928 22.0696L18.851 21.5346C18.7456 21.5078 18.5874 21.5078 18.4819 21.5078ZM11.3898 21.7753C11.1261 21.5881 10.757 21.5078 10.3615 21.5078C9.72877 21.5078 9.30694 21.8288 9.30694 22.3371C9.30694 22.7651 9.62331 23.0059 10.177 23.0861L10.4406 23.1129C10.7306 23.1664 10.8888 23.2466 10.8888 23.3804C10.8888 23.5676 10.6779 23.7014 10.3088 23.7014C9.93969 23.7014 9.64968 23.5676 9.46512 23.4339L9.20148 23.8619C9.49149 24.0759 9.88696 24.1829 10.2824 24.1829C11.0207 24.1829 11.4425 23.8351 11.4425 23.3536C11.4425 22.8989 11.0997 22.6581 10.5724 22.5778L10.3088 22.5511C10.0715 22.5243 9.88696 22.4708 9.88696 22.3103C9.88696 22.1231 10.0715 22.0161 10.3615 22.0161C10.6779 22.0161 10.9943 22.1498 11.1525 22.2301L11.3898 21.7753ZM26.1014 21.5078C25.785 21.5078 25.5741 21.6683 25.4422 21.8823V21.5613H24.8886V24.1294H25.4422V22.6849C25.4422 22.2568 25.6268 22.0161 25.9695 22.0161C26.075 22.0161 26.2068 22.0428 26.3123 22.0696L26.4705 21.5346C26.365 21.5078 26.2068 21.5078 26.1014 21.5078ZM19.0356 22.8454C19.0356 23.6211 19.5629 24.1829 20.3802 24.1829C20.7493 24.1829 21.0129 24.1027 21.2766 23.8886L21.0129 23.4339C20.802 23.5944 20.5911 23.6746 20.3538 23.6746C19.9056 23.6746 19.5892 23.3536 19.5892 22.8454C19.5892 22.3638 19.9056 22.0428 20.3538 22.0161C20.5911 22.0161 20.802 22.0963 21.0129 22.2568L21.2766 21.8021C21.0129 21.5881 20.7493 21.5078 20.3802 21.5078C19.5629 21.5078 19.0356 22.0696 19.0356 22.8454ZM24.1504 22.8454V21.5613H23.5967V21.8823C23.4121 21.6416 23.1485 21.5078 22.8057 21.5078C22.0939 21.5078 21.5402 22.0696 21.5402 22.8454C21.5402 23.6211 22.0939 24.1829 22.8057 24.1829C23.1749 24.1829 23.4385 24.0492 23.5967 23.8084V24.1294H24.1504V22.8454ZM22.1203 22.8454C22.1203 22.3906 22.4103 22.0161 22.8848 22.0161C23.333 22.0161 23.6494 22.3638 23.6494 22.8454C23.6494 23.3001 23.333 23.6746 22.8848 23.6746C22.4103 23.6479 22.1203 23.3001 22.1203 22.8454ZM15.5027 21.5078C14.7645 21.5078 14.2372 22.0428 14.2372 22.8454C14.2372 23.6479 14.7645 24.1829 15.529 24.1829C15.8982 24.1829 16.2673 24.0759 16.5573 23.8351L16.2936 23.4339C16.0827 23.5944 15.8191 23.7014 15.5554 23.7014C15.2127 23.7014 14.8699 23.5409 14.7908 23.0861H16.6627V22.8721C16.6891 22.0428 16.2145 21.5078 15.5027 21.5078ZM15.5027 21.9893C15.8454 21.9893 16.0827 22.2033 16.1354 22.6046H14.8172C14.8699 22.2568 15.1072 21.9893 15.5027 21.9893ZM29.2388 22.8454V20.5448H28.6851V21.8823C28.5006 21.6416 28.2369 21.5078 27.8942 21.5078C27.1823 21.5078 26.6287 22.0696 26.6287 22.8454C26.6287 23.6211 27.1823 24.1829 27.8942 24.1829C28.2633 24.1829 28.5269 24.0492 28.6851 23.8084V24.1294H29.2388V22.8454ZM27.2087 22.8454C27.2087 22.3906 27.4987 22.0161 27.9733 22.0161C28.4215 22.0161 28.7378 22.3638 28.7378 22.8454C28.7378 23.3001 28.4215 23.6746 27.9733 23.6746C27.4987 23.6479 27.2087 23.3001 27.2087 22.8454ZM8.70054 22.8454V21.5613H8.14688V21.8823C7.96233 21.6416 7.69868 21.5078 7.35594 21.5078C6.64408 21.5078 6.09042 22.0696 6.09042 22.8454C6.09042 23.6211 6.64408 24.1829 7.35594 24.1829C7.72504 24.1829 7.98869 24.0492 8.14688 23.8084V24.1294H8.70054V22.8454ZM6.64408 22.8454C6.64408 22.3906 6.9341 22.0161 7.40867 22.0161C7.85687 22.0161 8.17325 22.3638 8.17325 22.8454C8.17325 23.3001 7.85687 23.6746 7.40867 23.6746C6.9341 23.6479 6.64408 23.3001 6.64408 22.8454Z" fill="#505050"/>
<path d="M19.5098 2.05978H11.2048V17.2009H19.5098V2.05978Z" fill="#FF5F00"/>
<path d="M11.7324 9.63034C11.7324 6.55397 13.1561 3.82537 15.3444 2.0598C13.7361 0.77575 11.706 -3.05176e-05 9.49135 -3.05176e-05C4.24474 -3.05176e-05 0 4.30689 0 9.63034C0 14.9538 4.24474 19.2607 9.49135 19.2607C11.706 19.2607 13.7361 18.4849 15.3444 17.2009C13.1561 15.4621 11.7324 12.7067 11.7324 9.63034Z" fill="#EB001B"/>
<path d="M30.7152 9.63037C30.7152 14.9538 26.4705 19.2607 21.2239 19.2607C19.0092 19.2607 16.9791 18.485 15.3708 17.2009C17.5855 15.4353 18.9828 12.7067 18.9828 9.63037C18.9828 6.554 17.5591 3.8254 15.3708 2.05983C16.9791 0.77578 19.0092 0 21.2239 0C26.4705 0 30.7152 4.33367 30.7152 9.63037Z" fill="#F79E1B"/>
</g>
<defs>
<clipPath id="clip0">
<rect width="31" height="24" fill="white"/>
</clipPath>
</defs>
</svg>
