<svg width="18" height="18" viewBox="0 0 18 18" fill="none" xmlns="http://www.w3.org/2000/svg">
<g clip-path="url(#clip0)">
<path d="M9.00229 4.37842C6.45004 4.37842 4.38379 6.44692 4.38379 8.99692C4.38379 11.5492 6.45229 13.6154 9.00229 13.6154C11.5545 13.6154 13.6208 11.5469 13.6208 8.99692C13.6208 6.44467 11.5523 4.37842 9.00229 4.37842ZM9.00229 11.9947C7.34554 11.9947 6.00454 10.6529 6.00454 8.99692C6.00454 7.34092 7.34629 5.99917 9.00229 5.99917C10.6583 5.99917 12 7.34092 12 8.99692C12.0008 10.6529 10.659 11.9947 9.00229 11.9947Z" fill="currentColor"/>
<path d="M12.7102 0.0575166C11.0542 -0.0197334 6.95244 -0.0159834 5.29494 0.0575166C3.83844 0.125767 2.55369 0.477516 1.51794 1.51327C-0.213056 3.24427 0.00819388 5.57677 0.00819388 8.99752C0.00819388 12.4985 -0.186806 14.777 1.51794 16.4818C3.25569 18.2188 5.62194 17.9915 9.00219 17.9915C12.4702 17.9915 13.6672 17.9938 14.8934 17.519C16.5607 16.8718 17.8192 15.3815 17.9422 12.7048C18.0202 11.048 18.0157 6.94702 17.9422 5.28952C17.7937 2.12977 16.0979 0.213517 12.7102 0.0575166ZM15.3314 15.3365C14.1967 16.4713 12.6224 16.37 8.98044 16.37C5.23044 16.37 3.72669 16.4255 2.62944 15.3253C1.36569 14.0675 1.59444 12.0478 1.59444 8.98552C1.59444 4.84177 1.16919 1.85752 5.32794 1.64452C6.28344 1.61077 6.56469 1.59952 8.96994 1.59952L9.00369 1.62202C13.0004 1.62202 16.1362 1.20352 16.3244 5.36152C16.3672 6.31027 16.3769 6.59527 16.3769 8.99677C16.3762 12.7033 16.4467 14.216 15.3314 15.3365Z" fill="currentColor"/>
<path d="M13.8048 5.27544C14.4009 5.27544 14.8841 4.79224 14.8841 4.19619C14.8841 3.60014 14.4009 3.11694 13.8048 3.11694C13.2088 3.11694 12.7256 3.60014 12.7256 4.19619C12.7256 4.79224 13.2088 5.27544 13.8048 5.27544Z" fill="currentColor"/>
</g>
<defs>
<clipPath id="clip0">
  <rect width="18" height="18" fill="currentColor"/>
</clipPath>
</defs>
</svg>
