<?xml version="1.0" encoding="UTF-8"?>
<svg xmlns="http://www.w3.org/2000/svg" xmlns:xlink="http://www.w3.org/1999/xlink" width="44pt" height="44pt" viewBox="0 0 44 44" version="1.1">
<g id="surface1">
<path style="fill-rule:nonzero;fill:currentColor;fill-opacity:1;stroke-width:1;stroke-linecap:butt;stroke-linejoin:miter;stroke:currentColor;stroke-opacity:1;stroke-miterlimit:4;" d="M 0.501065 20.332386 L 19.336293 20.332386 L 19.336293 47.667614 L 0.501065 47.667614 Z M 0.501065 59.5 L 0.501065 48.663707 L 19.336293 48.663707 L 19.336293 67.498935 L 8.5 67.498935 C 4.080966 67.498935 0.501065 63.919034 0.501065 59.5 Z M 20.332386 67.498935 L 20.332386 48.663707 L 67.498935 48.663707 L 67.498935 59.5 C 67.498935 63.919034 63.919034 67.498935 59.5 67.498935 Z M 67.498935 8.5 L 67.498935 19.336293 L 20.332386 19.336293 L 20.332386 0.501065 L 59.5 0.501065 C 63.919034 0.501065 67.498935 4.080966 67.498935 8.5 Z M 19.336293 19.336293 L 0.501065 19.336293 L 0.501065 8.5 C 0.501065 4.080966 4.080966 0.501065 8.5 0.501065 L 19.336293 0.501065 Z M 19.336293 19.336293 " transform="matrix(0.647059,0,0,0.647059,0,0)"/>
<path style="fill:none;stroke-width:1;stroke-linecap:butt;stroke-linejoin:miter;stroke:currentColor;stroke-opacity:1;stroke-miterlimit:4;" d="M 6.00071 0.501065 L 61.99929 0.501065 C 65.035866 0.501065 67.498935 2.964134 67.498935 6.00071 L 67.498935 61.99929 C 67.498935 65.035866 65.035866 67.498935 61.99929 67.498935 L 6.00071 67.498935 C 2.964134 67.498935 0.501065 65.035866 0.501065 61.99929 L 0.501065 6.00071 C 0.501065 2.964134 2.964134 0.501065 6.00071 0.501065 Z M 6.00071 0.501065 " transform="matrix(0.647059,0,0,0.647059,0,0)"/>
<path class="num" style=" stroke:none;fill-rule:nonzero;fill:rgb(100%,100%,100%);fill-opacity:1;" d="M 23.667969 40.195312 C 24.753906 40.195312 25.515625 39.535156 25.515625 38.566406 C 25.515625 37.9375 25.171875 37.46875 24.683594 37.261719 C 25.050781 37.042969 25.359375 36.601562 25.359375 36.066406 C 25.359375 35.164062 24.667969 34.511719 23.636719 34.511719 C 22.640625 34.511719 21.765625 35.171875 21.765625 36.289062 L 22.625 36.289062 C 22.625 35.699219 23.070312 35.351562 23.636719 35.351562 C 24.117188 35.351562 24.496094 35.652344 24.496094 36.117188 C 24.488281 36.585938 24.140625 36.902344 23.589844 36.902344 L 23.15625 36.902344 L 23.15625 37.632812 L 23.589844 37.632812 C 24.234375 37.632812 24.652344 37.921875 24.652344 38.511719 C 24.644531 39.046875 24.226562 39.355469 23.667969 39.355469 C 23.054688 39.355469 22.554688 38.992188 22.519531 38.386719 L 21.664062 38.386719 C 21.6875 39.496094 22.585938 40.195312 23.667969 40.195312 Z M 23.667969 40.195312 "/>
<path class="num" style=" stroke:none;fill-rule:nonzero;fill:rgb(100%,100%,100%);fill-opacity:1;" d="M 8.535156 23.101562 L 6.011719 23.101562 C 6.160156 22.605469 6.765625 22.296875 7.261719 21.921875 C 8.070312 21.339844 8.480469 20.867188 8.480469 19.988281 C 8.480469 18.894531 7.675781 18.335938 6.75 18.335938 C 5.703125 18.335938 4.886719 19.050781 4.886719 20.113281 L 5.75 20.113281 C 5.757812 19.523438 6.183594 19.171875 6.742188 19.171875 C 7.292969 19.171875 7.621094 19.515625 7.621094 20.011719 C 7.621094 20.570312 7.253906 20.882812 6.695312 21.292969 C 5.886719 21.890625 4.886719 22.410156 4.886719 23.628906 L 4.886719 23.941406 L 8.535156 23.941406 Z M 8.535156 23.101562 "/>
<path class="num" style=" stroke:none;fill-rule:nonzero;fill:rgb(100%,100%,100%);fill-opacity:1;" d="M 23.796875 9.058594 L 24.648438 9.058594 L 24.648438 3.546875 L 23.339844 3.546875 L 22.6875 4.390625 L 23.796875 4.390625 Z M 23.796875 9.058594 "/>
</g>
</svg>
