<?xml version="1.0" encoding="UTF-8"?>
<svg xmlns="http://www.w3.org/2000/svg" xmlns:xlink="http://www.w3.org/1999/xlink" width="44pt" height="44pt" viewBox="0 0 44 44" version="1.1">
<g id="surface1">
<path style="fill-rule:nonzero;fill:currentColor;fill-opacity:1;stroke-width:1;stroke-linecap:butt;stroke-linejoin:miter;stroke:currentColor;stroke-opacity:1;stroke-miterlimit:4;" d="M 8.5 0.501065 L 19.336293 0.501065 L 19.336293 47.667614 L 0.501065 47.667614 L 0.501065 8.5 C 0.501065 4.080966 4.080966 0.501065 8.5 0.501065 Z M 19.336293 48.663707 L 19.336293 67.498935 L 8.5 67.498935 C 4.080966 67.498935 0.501065 63.919034 0.501065 59.5 L 0.501065 48.663707 Z M 20.332386 67.498935 L 20.332386 48.663707 L 67.498935 48.663707 L 67.498935 59.5 C 67.498935 63.919034 63.919034 67.498935 59.5 67.498935 Z M 20.332386 67.498935 " transform="matrix(0.647059,0,0,0.647059,0,0)"/>
<path style="fill:none;stroke-width:1;stroke-linecap:butt;stroke-linejoin:miter;stroke:currentColor;stroke-opacity:1;stroke-miterlimit:4;" d="M 6.00071 0.501065 L 61.99929 0.501065 C 65.035866 0.501065 67.498935 2.964134 67.498935 6.00071 L 67.498935 61.99929 C 67.498935 65.035866 65.035866 67.498935 61.99929 67.498935 L 6.00071 67.498935 C 2.964134 67.498935 0.501065 65.035866 0.501065 61.99929 L 0.501065 6.00071 C 0.501065 2.964134 2.964134 0.501065 6.00071 0.501065 Z M 6.00071 0.501065 " transform="matrix(0.647059,0,0,0.647059,0,0)"/>
<path class="num" style=" stroke:none;fill-rule:nonzero;fill:rgb(100%,100%,100%);fill-opacity:1;" d="M 24.710938 39.277344 L 22.1875 39.277344 C 22.335938 38.78125 22.941406 38.472656 23.4375 38.097656 C 24.246094 37.515625 24.65625 37.042969 24.65625 36.164062 C 24.65625 35.070312 23.851562 34.511719 22.925781 34.511719 C 21.878906 34.511719 21.0625 35.226562 21.0625 36.289062 L 21.925781 36.289062 C 21.933594 35.699219 22.359375 35.351562 22.917969 35.351562 C 23.46875 35.351562 23.796875 35.691406 23.796875 36.1875 C 23.796875 36.746094 23.429688 37.058594 22.871094 37.46875 C 22.066406 38.066406 21.0625 38.589844 21.0625 39.808594 L 21.0625 40.117188 L 24.710938 40.117188 Z M 24.710938 39.277344 "/>
<path class="num" style=" stroke:none;fill-rule:nonzero;fill:rgb(100%,100%,100%);fill-opacity:1;" d="M 5.679688 23.941406 L 6.53125 23.941406 L 6.53125 18.429688 L 5.21875 18.429688 L 4.566406 19.273438 L 5.679688 19.273438 Z M 5.679688 23.941406 "/>
</g>
</svg>
