<?xml version="1.0" encoding="UTF-8"?>
<svg xmlns="http://www.w3.org/2000/svg" xmlns:xlink="http://www.w3.org/1999/xlink" width="44pt" height="44pt" viewBox="0 0 44 44" version="1.1">
<g id="surface1">
<path style=" stroke:none;fill-rule:nonzero;fill:currentColor;fill-opacity:1;" d="M 0 31.167969 L 44 31.167969 L 44 42.058594 C 44 43.132812 43.132812 44 42.058594 44 L 1.941406 44 C 0.867188 44 0 43.132812 0 42.058594 Z M 0 31.167969 "/>
<path style="fill:none;stroke-width:1;stroke-linecap:butt;stroke-linejoin:miter;stroke:currentColor;stroke-opacity:1;stroke-miterlimit:4;" d="M 6.00071 0.501065 L 61.99929 0.501065 C 65.035866 0.501065 67.498935 2.964134 67.498935 6.00071 L 67.498935 61.99929 C 67.498935 65.035866 65.035866 67.498935 61.99929 67.498935 L 6.00071 67.498935 C 2.964134 67.498935 0.501065 65.035866 0.501065 61.99929 L 0.501065 6.00071 C 0.501065 2.964134 2.964134 0.501065 6.00071 0.501065 Z M 6.00071 0.501065 " transform="matrix(0.647059,0,0,0.647059,0,0)"/>
<path style=" stroke:none;fill-rule:nonzero;fill:currentColor;fill-opacity:1;" d="M 11 11.917969 L 33 11.917969 L 33 22.917969 L 11 22.917969 Z M 11 11.917969 "/>
<path class="num" style=" stroke:none;fill-rule:nonzero;fill:rgb(100%,100%,100%);fill-opacity:1;" d="M 24.066406 39.277344 L 21.542969 39.277344 C 21.6875 38.78125 22.296875 38.472656 22.792969 38.097656 C 23.597656 37.515625 24.011719 37.042969 24.011719 36.164062 C 24.011719 35.070312 23.203125 34.511719 22.28125 34.511719 C 21.230469 34.511719 20.414062 35.226562 20.414062 36.289062 L 21.277344 36.289062 C 21.285156 35.699219 21.710938 35.351562 22.273438 35.351562 C 22.824219 35.351562 23.148438 35.691406 23.148438 36.1875 C 23.148438 36.746094 22.785156 37.058594 22.226562 37.46875 C 21.417969 38.066406 20.414062 38.589844 20.414062 39.808594 L 20.414062 40.117188 L 24.066406 40.117188 Z M 24.066406 39.277344 "/>
<path class="num" style=" stroke:none;fill-rule:nonzero;fill:rgb(100%,100%,100%);fill-opacity:1;" d="M 21.855469 20.058594 L 22.710938 20.058594 L 22.710938 14.546875 L 21.398438 14.546875 L 20.746094 15.390625 L 21.855469 15.390625 Z M 21.855469 20.058594 "/>
</g>
</svg>
