<svg width="56" height="16" viewBox="0 0 56 16" fill="none" xmlns="http://www.w3.org/2000/svg">
<path d="M24.6943 0L19.7271 3.51176L21.98 5.10638L24.6943 3.18925L27.4262 5.10638L29.6792 3.51176L24.6943 0Z" fill="#B3CC7A"/>
<path d="M9.56188 10.356V15.8028H6.47511C6.47511 15.8028 6.47511 12.5419 6.47511 11.1981C6.47511 9.72894 5.71229 9.10184 4.77207 9.10184C3.83185 9.10184 3.06902 9.72894 3.06902 11.1981V15.8028H0V1.8454H3.06902V7.29221C3.81411 6.64719 4.71885 6.28885 5.67681 6.28885C7.80561 6.28885 9.56188 7.47138 9.56188 10.356ZM40.2344 6.28885C39.0281 6.28885 37.9459 6.66511 37.1299 7.56097C36.4912 6.68303 35.4801 6.28885 34.2383 6.28885C33.3158 6.28885 32.482 6.61136 31.7901 7.20262V6.48594H28.7211V15.7849H31.7901V11.0011C31.7901 9.72894 32.3933 9.10184 33.2803 9.10184C34.2205 9.10184 34.7882 9.67519 34.7882 11.0011C34.7882 12.3448 34.7882 15.8028 34.7882 15.8028H37.8572V11.0011C37.8572 9.72894 38.4604 9.10184 39.3474 9.10184C40.2876 9.10184 40.8553 9.67519 40.8553 11.0011C40.8553 12.3448 40.8553 15.8028 40.8553 15.8028H43.9243V10.356C43.9243 7.47138 42.3455 6.28885 40.2344 6.28885ZM23.1507 15.7849H26.2198V6.50385H23.1507V15.7849ZM21.3235 11.1444C21.3235 11.4848 21.288 11.8252 21.2348 12.1298H14.3517C14.671 13.0436 15.4161 13.5274 16.2676 13.5274C16.7821 13.5274 17.2788 13.3303 17.6513 12.9719H21.1284C20.4897 14.8532 18.3787 15.982 16.2676 15.982C13.5711 15.982 11.2117 14.2799 11.2117 11.1265C11.2117 7.97306 13.5711 6.27093 16.2676 6.27093C18.9641 6.28885 21.3235 7.99098 21.3235 11.1444ZM18.1126 10.0156C17.7755 9.19143 17.0482 8.76141 16.2676 8.76141C15.4693 8.76141 14.7597 9.19143 14.4226 10.0156H18.1126ZM55.7037 11.1444C55.7037 11.4848 55.6682 11.8252 55.615 12.1298H48.7319C49.0512 13.0436 49.7963 13.5274 50.6478 13.5274C51.1622 13.5274 51.659 13.3303 52.0315 12.9719H55.5085C54.8699 14.8532 52.7588 15.982 50.6478 15.982C47.9513 15.982 45.5919 14.2799 45.5919 11.1265C45.5919 7.97306 47.9513 6.27093 50.6478 6.27093C53.3265 6.28885 55.7037 7.99098 55.7037 11.1444ZM52.475 10.0156C52.1379 9.19143 51.4106 8.76141 50.63 8.76141C49.8317 8.76141 49.1221 9.19143 48.7851 10.0156H52.475Z" fill="#221E20"/>
</svg>
