<svg width="14" height="13" viewBox="0 0 14 13" fill="none" xmlns="http://www.w3.org/2000/svg">
<path d="M12.9205 1.14929C12.5784 0.784935 12.1722 0.495898 11.7252 0.298699C11.2782 0.101499 10.799 0 10.3151 0C9.83123 0 9.35208 0.101499 8.90504 0.298699C8.45801 0.495898 8.05185 0.784935 7.70976 1.14929L6.99982 1.90512L6.28988 1.14929C5.5989 0.413658 4.66172 0.000381306 3.68453 0.000381314C2.70733 0.000381322 1.77016 0.413658 1.07917 1.14929C0.38819 1.88493 7.28069e-09 2.88267 0 3.92302C-7.28069e-09 4.96336 0.38819 5.9611 1.07917 6.69674L1.78911 7.45256L6.99982 13L12.2105 7.45256L12.9205 6.69674C13.2627 6.33255 13.5342 5.90014 13.7194 5.42422C13.9047 4.94829 14 4.43818 14 3.92302C14 3.40785 13.9047 2.89774 13.7194 2.42182C13.5342 1.94589 13.2627 1.51348 12.9205 1.14929Z" fill="#B2CC79"/>
</svg>
