<svg width="48" height="20" viewBox="0 0 48 20" fill="none" xmlns="http://www.w3.org/2000/svg">
<path d="M43.998 8.00392H0L4.00196 4.00196L0 0H43.998L48 4.00196L43.998 8.00392Z" fill="#70BF91"/>
<path d="M1.22412 19.9863V11.9823H3.64884L6.33251 15.0897V11.9823H9.36929V19.9863H6.94457L4.2609 16.8789V19.9863H1.22412ZM14.6425 11.9823V19.9863H11.6057V11.9823H14.6425ZM46.7523 19.9863L43.8568 15.9843L46.7523 11.9823H43.3153L42.1383 13.7244L40.9612 11.9823H37.5243L40.4198 15.9843L37.5243 19.9863H40.9848L42.1383 18.1736L43.2918 19.9863H46.7523ZM34.0402 19.9863H37.1241L34.1108 11.9823H30.8386L27.8254 19.9863H30.9093L31.1918 19.0682H33.7813L34.0402 19.9863ZM31.8038 17.0201L32.463 14.8543L33.1221 17.0201H31.8038ZM24.0588 11.9823L21.8225 15.6783L19.5861 11.9823H16.8553V19.9863H19.8921V16.7612L20.9279 18.4796H22.6935L23.7293 16.7612V19.9627H26.7661V11.9588H24.0588V11.9823Z" fill="black"/>
</svg>
