<svg width="19" height="19" viewBox="0 0 19 19" fill="none" xmlns="http://www.w3.org/2000/svg">
<path d="M16.7647 13.9706C16.7647 13.6601 16.656 13.3962 16.4387 13.1789L14.0172 10.7574C13.7998 10.54 13.5359 10.4314 13.2255 10.4314C12.8995 10.4314 12.6201 10.5556 12.3873 10.8039C12.4105 10.8272 12.4843 10.899 12.6085 11.0193C12.7326 11.1396 12.8161 11.223 12.8588 11.2696C12.9015 11.3162 12.9597 11.3899 13.0334 11.4908C13.1071 11.5917 13.1576 11.6907 13.1847 11.7877C13.2119 11.8847 13.2255 11.9914 13.2255 12.1078C13.2255 12.4183 13.1168 12.6822 12.8995 12.8995C12.6822 13.1168 12.4183 13.2255 12.1078 13.2255C11.9914 13.2255 11.8847 13.2119 11.7877 13.1847C11.6907 13.1576 11.5917 13.1071 11.4908 13.0334C11.3899 12.9597 11.3162 12.9015 11.2696 12.8588C11.223 12.8161 11.1396 12.7326 11.0193 12.6085C10.899 12.4843 10.8272 12.4105 10.8039 12.3873C10.5478 12.6279 10.4197 12.9112 10.4197 13.2371C10.4197 13.5476 10.5284 13.8115 10.7457 14.0288L13.144 16.4387C13.3536 16.6483 13.6174 16.7531 13.9357 16.7531C14.2461 16.7531 14.51 16.6522 14.7273 16.4504L16.4387 14.7506C16.656 14.5333 16.7647 14.2733 16.7647 13.9706ZM8.58027 5.76287C8.58027 5.45241 8.47161 5.18852 8.25429 4.9712L5.85601 2.56127C5.63868 2.34395 5.3748 2.23529 5.06434 2.23529C4.76164 2.23529 4.49775 2.34007 4.27267 2.54963L2.56127 4.24939C2.34395 4.46671 2.23529 4.72672 2.23529 5.02941C2.23529 5.33987 2.34395 5.60376 2.56127 5.82108L4.98284 8.24265C5.1924 8.45221 5.45629 8.55699 5.77451 8.55699C6.10049 8.55699 6.3799 8.43668 6.61275 8.19608C6.58946 8.17279 6.51573 8.101 6.39154 7.9807C6.26736 7.8604 6.18393 7.77696 6.14124 7.73039C6.09855 7.68382 6.04034 7.61009 5.96661 7.50919C5.89287 7.40829 5.84242 7.30933 5.81526 7.21232C5.78809 7.1153 5.77451 7.00858 5.77451 6.89216C5.77451 6.5817 5.88317 6.31781 6.10049 6.10049C6.31781 5.88317 6.5817 5.77451 6.89216 5.77451C7.00858 5.77451 7.1153 5.78809 7.21232 5.81526C7.30933 5.84242 7.40829 5.89287 7.50919 5.96661C7.61009 6.04034 7.68382 6.09855 7.73039 6.14124C7.77696 6.18393 7.8604 6.26736 7.9807 6.39154C8.101 6.51573 8.17279 6.58946 8.19608 6.61275C8.45221 6.37214 8.58027 6.08885 8.58027 5.76287ZM19 13.9706C19 14.902 18.6701 15.6897 18.0104 16.3339L16.299 18.0337C15.6548 18.6779 14.867 19 13.9357 19C12.9965 19 12.2049 18.6701 11.5607 18.0104L9.16238 15.6005C8.51818 14.9563 8.19608 14.1685 8.19608 13.2371C8.19608 12.2825 8.53758 11.4714 9.22059 10.8039L8.19608 9.77941C7.52859 10.4624 6.72141 10.8039 5.77451 10.8039C4.84314 10.8039 4.05147 10.4779 3.39951 9.82598L0.977941 7.40441C0.32598 6.75245 0 5.96078 0 5.02941C0 4.09804 0.329861 3.31025 0.989583 2.66605L2.70098 0.966299C3.34518 0.3221 4.13297 0 5.06434 0C6.00347 0 6.79514 0.329861 7.43934 0.989583L9.83762 3.39951C10.4818 4.04371 10.8039 4.8315 10.8039 5.76287C10.8039 6.71752 10.4624 7.52859 9.77941 8.19608L10.8039 9.22059C11.4714 8.53758 12.2786 8.19608 13.2255 8.19608C14.1569 8.19608 14.9485 8.52206 15.6005 9.17402L18.0221 11.5956C18.674 12.2475 19 13.0392 19 13.9706Z" fill="currentColor"/>
</svg>
