<svg width="22" height="13" viewBox="0 0 22 13" fill="none" xmlns="http://www.w3.org/2000/svg">
<path d="M21.4536 0.974215C21.5999 0.474909 21.4536 0.107422 20.7496 0.107422H18.4201C17.8269 0.107422 17.554 0.422985 17.4077 0.774521C17.4077 0.774521 16.2213 3.69449 14.5443 5.58791C14.0025 6.13517 13.7534 6.31096 13.4568 6.31096C13.3105 6.31096 13.085 6.13517 13.085 5.63586V0.974215C13.085 0.375038 12.9188 0.107422 12.4285 0.107422H8.76619C8.39443 0.107422 8.17296 0.38706 8.17296 0.646677C8.17296 1.21386 9.01143 1.34568 9.09845 2.94352V6.41083C9.09845 7.1698 8.96395 7.30953 8.66736 7.30953C7.87636 7.30953 5.95424 4.37758 4.81525 1.02216C4.5859 0.371061 4.3604 0.107422 3.76322 0.107422H1.43368C0.769261 0.107422 0.634766 0.422985 0.634766 0.774521C0.634766 1.3976 1.42576 4.49345 4.31681 8.58385C6.24287 11.376 8.95594 12.89 11.4238 12.89C12.9069 12.89 13.0889 12.5545 13.0889 11.9753C13.0889 9.30684 12.9544 9.05518 13.698 9.05518C14.042 9.05518 14.6352 9.23092 16.0196 10.5771C17.6014 12.1749 17.8625 12.89 18.7484 12.89H21.0778C21.7423 12.89 22.0785 12.5544 21.8847 11.8912C21.4417 10.4972 18.4478 7.62911 18.3133 7.43737C17.9693 6.98999 18.0681 6.7902 18.3133 6.39071C18.3174 6.38683 21.1609 2.34434 21.4536 0.974215Z" fill="currentColor"/>
</svg>
