<svg width="20" height="12" viewBox="0 0 20 12" fill="none" xmlns="http://www.w3.org/2000/svg">
<path d="M9.786 11.9494H10.9811C10.9811 11.9494 11.3424 11.9074 11.5261 11.6984C11.6961 11.5064 11.6899 11.1463 11.6899 11.1463C11.6899 11.1463 11.6661 9.45967 12.4112 9.21122C13.145 8.96671 14.0876 10.8413 15.0864 11.563C15.8414 12.1085 16.4152 11.9889 16.4152 11.9889L19.0867 11.9494C19.0867 11.9494 20.4843 11.8587 19.8217 10.7032C19.768 10.6086 19.4355 9.84878 17.8353 8.28709C16.1602 6.65178 16.3852 6.91732 18.4029 4.0897C19.6317 2.36763 20.123 1.31598 19.9692 0.866405C19.823 0.437859 18.9192 0.550911 18.9192 0.550911L15.9139 0.569315C15.9139 0.569315 15.6914 0.537766 15.5252 0.641616C15.3639 0.744151 15.2601 0.980772 15.2601 0.980772C15.2601 0.980772 14.7839 2.31373 14.1488 3.44688C12.81 5.83806 12.2737 5.96426 12.0549 5.81572C11.5461 5.46999 11.6736 4.42491 11.6736 3.6835C11.6736 1.36594 12.0074 0.399737 11.0223 0.149971C10.6948 0.0671538 10.4548 0.0119424 9.61848 0.00274048C8.54591 -0.00909055 7.63709 0.00668415 7.1233 0.27091C6.78078 0.447061 6.51701 0.840114 6.67827 0.862462C6.87703 0.890068 7.32707 0.989974 7.56583 1.33176C7.87461 1.77214 7.86336 2.76331 7.86336 2.76331C7.86336 2.76331 8.04087 5.49102 7.44958 5.83018C7.0433 6.06285 6.487 5.5883 5.29317 3.41796C4.68187 2.30716 4.21934 1.07805 4.21934 1.07805C4.21934 1.07805 4.13058 0.849316 3.97182 0.727062C3.77931 0.578517 3.50929 0.531193 3.50929 0.531193L0.651577 0.549597C0.651577 0.549597 0.222795 0.562743 0.0652839 0.758612C-0.0747264 0.933448 0.054033 1.29364 0.054033 1.29364C0.054033 1.29364 2.2917 6.79769 4.82438 9.57272C7.1483 12.1164 9.786 11.9494 9.786 11.9494Z" fill="currentColor"/>
</svg>
